<svg width="32" height="32" viewBox="0 0 32 32" fill="none" xmlns="http://www.w3.org/2000/svg">
<path d="M23.4667 0H8.53333C3.8205 0 0 3.8205 0 8.53333V23.4667C0 28.1795 3.8205 32 8.53333 32H23.4667C28.1795 32 32 28.1795 32 23.4667V8.53333C32 3.8205 28.1795 0 23.4667 0Z" fill="black"/>
<path d="M28.5757 26.8358C27.7929 26.8358 27.2505 26.3801 26.772 25.9782C26.3467 25.6207 25.9789 25.3115 25.4923 25.3115C25.0058 25.3115 24.638 25.6201 24.2127 25.9782C23.7342 26.3801 23.1918 26.8358 22.409 26.8358C21.6262 26.8358 21.0838 26.3801 20.6053 25.9787C20.1795 25.6207 19.8117 25.312 19.3251 25.312C18.8386 25.312 18.4708 25.6207 18.0455 25.9787C17.567 26.3807 17.0246 26.8363 16.2418 26.8363C15.4585 26.8363 14.9166 26.3807 14.4381 25.9787C14.0123 25.6212 13.6445 25.312 13.1579 25.312C12.6713 25.312 12.3036 25.6207 11.8777 25.9787C11.3998 26.3801 10.8574 26.8358 10.0746 26.8358C8.90614 26.6986 8.1863 26.1241 7.6075 25.663C7.20879 25.3451 6.89416 25.094 6.59147 25.094C6.01809 25.094 5.57599 25.5675 5.14907 26.0254C4.76067 26.4425 4.39343 26.8358 3.90684 26.8358C3.68227 26.8358 3.5 26.6535 3.5 26.429C3.5 26.2044 3.68227 26.0221 3.90684 26.0221C4.03975 26.0221 4.33701 25.7031 4.554 25.4704C5.04872 24.9399 5.66387 24.2803 6.59147 24.2803C7.17841 24.2803 7.63299 24.6432 8.11469 25.0267C8.63871 25.4449 9.2327 25.9185 10.1234 26.0248C10.5617 26.0221 10.929 25.7134 11.3548 25.356C11.8332 24.954 12.3752 24.4983 13.1585 24.4983C13.9418 24.4983 14.4837 24.954 14.9621 25.356C15.388 25.7134 15.7558 26.0227 16.2423 26.0227C16.7289 26.0227 17.0967 25.714 17.522 25.356C18.0005 24.954 18.5429 24.4983 19.3257 24.4983C20.1084 24.4983 20.6509 24.954 21.1294 25.3554C21.5552 25.7134 21.923 26.0221 22.4096 26.0221C22.8961 26.0221 23.2639 25.7134 23.6892 25.3554C24.1677 24.9535 24.7101 24.4978 25.4929 24.4978C26.2757 24.4978 26.8181 24.9535 27.2966 25.3554C27.7219 25.7129 28.0896 26.0221 28.5762 26.0221C28.8008 26.0221 28.9831 26.2044 28.9831 26.429C28.9831 26.6535 28.8003 26.8358 28.5757 26.8358Z" fill="white"/>
<path d="M20.9353 25.5976C20.7823 25.5976 20.6347 25.5108 20.5659 25.3616C20.4715 25.1582 20.5599 24.9163 20.7639 24.8213C22.2795 24.1178 24.1401 23.1826 25.7518 21.9528L6.32361 23.1495L7.01579 24.4677C7.12102 24.6662 7.04616 24.9125 6.84762 25.0183C6.64963 25.1224 6.40281 25.0486 6.29757 24.8501L5.31192 22.9705C5.24791 22.8479 5.25063 22.702 5.31789 22.5821C5.3857 22.4616 5.50992 22.3841 5.64716 22.3754L26.9435 21.0643C27.122 21.0534 27.2761 21.1538 27.3428 21.3122C27.4101 21.4711 27.3699 21.6556 27.2419 21.7716C25.3726 23.4723 22.9814 24.6895 21.1056 25.5602C21.0514 25.5857 20.9933 25.5976 20.9353 25.5976Z" fill="white"/>
<path d="M24.556 20.6626C24.5056 20.6626 24.4551 20.6534 24.4074 20.6344L24.1356 20.5259C23.3246 20.1983 22.7377 19.9618 21.6604 20.2368C21.4434 20.2932 21.2264 20.1641 21.1673 19.9509C19.6864 14.5605 17.2252 10.6456 13.8549 8.31412C13.69 8.19967 13.6331 7.98268 13.7204 7.80204C13.8077 7.62195 14.0133 7.53081 14.2054 7.59048C17.8393 8.70198 23.1445 14.1293 24.9466 20.1397C24.9911 20.2889 24.9466 20.4505 24.8321 20.5563C24.7551 20.6258 24.6564 20.6626 24.556 20.6626ZM22.5354 19.3032C23.0534 19.3032 23.4863 19.4139 23.9007 19.5625C22.5332 15.7187 19.7694 12.2133 17.1091 10.1362C19.1678 12.4628 20.755 15.5511 21.8475 19.3651C22.0943 19.3217 22.3222 19.3032 22.5354 19.3032Z" fill="white"/>
<path d="M7.21961 21.5079C7.10678 21.5079 6.99504 21.4613 6.91584 21.3718C6.78456 21.2247 6.77751 21.0045 6.89956 20.8494C11.5913 14.8861 8.50253 8.209 6.95706 5.61497C6.86647 5.46362 6.88437 5.27159 7.00046 5.13869C7.11655 5.00633 7.30532 4.96347 7.46697 5.03291C11.805 6.88812 18.7083 12.4825 19.9489 20.2901C19.9723 20.4355 19.9153 20.5809 19.8009 20.6725C19.6864 20.7637 19.5323 20.787 19.3956 20.7311C15.0614 18.9828 11.0374 19.2242 7.43334 21.4472C7.36716 21.4884 7.29339 21.5079 7.21961 21.5079ZM8.27632 6.32179C9.79629 9.29989 11.6271 14.7304 8.51066 19.9445C11.7508 18.4474 15.2757 18.3692 19.017 19.7162C17.6717 13.2343 12.2797 8.43195 8.27632 6.32179Z" fill="white"/>
</svg>
